<svg xmlns="http://www.w3.org/2000/svg" viewBox="0 0 605 602.88">
  <title>circles</title>
  <g>
    <g>
      <circle cx="302.5" cy="302.5" r="300" style="fill: none;stroke: #eee;stroke-miterlimit: 10;stroke-width: 0.75px"/>
      <circle cx="302.5" cy="302.5" r="272.73" style="fill: none;stroke: #eee;stroke-miterlimit: 10;stroke-width: 0.75px"/>
      <circle cx="302.5" cy="302.5" r="245.45" style="fill: none;stroke: #eee;stroke-miterlimit: 10;stroke-width: 0.75px"/>
      <circle cx="302.5" cy="302.5" r="218.18" style="fill: none;stroke: #eee;stroke-miterlimit: 10;stroke-width: 0.75px"/>
      <circle cx="302.5" cy="302.5" r="190.91" style="fill: none;stroke: #eee;stroke-miterlimit: 10;stroke-width: 0.75px"/>
      <circle cx="302.5" cy="302.5" r="163.64" style="fill: none;stroke: #eee;stroke-miterlimit: 10;stroke-width: 0.75px"/>
      <circle cx="302.5" cy="302.5" r="136.36" style="fill: none;stroke: #eee;stroke-miterlimit: 10;stroke-width: 0.75px"/>
      <circle cx="302.5" cy="302.5" r="109.09" style="fill: none;stroke: #eee;stroke-miterlimit: 10;stroke-width: 0.75px"/>
      <circle cx="302.5" cy="302.5" r="81.82" style="fill: none;stroke: #eee;stroke-miterlimit: 10;stroke-width: 0.75px"/>
      <circle cx="302.5" cy="302.5" r="54.55" style="fill: none;stroke: #eee;stroke-miterlimit: 10;stroke-width: 0.75px"/>
      <circle cx="302.5" cy="302.5" r="27.27" style="fill: none;stroke: #eee;stroke-miterlimit: 10;stroke-width: 0.75px"/>
    </g>
    <g>
      <path d="M908.07,583.53a300.77,300.77,0,0,0,55.1-307.13" transform="translate(-380.79 -82.23)" style="fill: none;stroke: #e04246;stroke-miterlimit: 10;stroke-width: 5px"/>
      <path d="M683.29,84.73c-150.66,0-275.2,110.77-296.72,255.4a303.56,303.56,0,0,0-3.28,44.6,298.78,298.78,0,0,0,59.07,178.9" transform="translate(-380.79 -82.23)" style="fill: none;stroke: #e04246;stroke-miterlimit: 10;stroke-width: 5px"/>
      <path d="M595.13,642.93a272.61,272.61,0,0,1-184.57-258.2C410.56,234,532.54,112,683.29,112a273.4,273.4,0,0,1,74.36,10.24" transform="translate(-380.79 -82.23)" style="fill: none;stroke: #e04246;stroke-miterlimit: 10;stroke-width: 5px"/>
      <path d="M870.42,186.25A271.9,271.9,0,0,1,956,384.73c0,118.1-74.86,218.54-179.76,256.51" transform="translate(-380.79 -82.23)" style="fill: none;stroke: #e04246;stroke-miterlimit: 10;stroke-width: 5px"/>
      <path d="M437.83,384.73c0,135.67,109.79,245.46,245.46,245.46A245.13,245.13,0,0,0,886.85,522" transform="translate(-380.79 -82.23)" style="fill: none;stroke: #e04246;stroke-miterlimit: 10;stroke-width: 5px"/>
      <path d="M928.74,384.73A245.44,245.44,0,0,0,500.26,221.09" transform="translate(-380.79 -82.23)" style="fill: none;stroke: #e04246;stroke-miterlimit: 10;stroke-width: 5px"/>
      <path d="M563.22,567A218.24,218.24,0,0,1,683.29,166.55" transform="translate(-380.79 -82.23)" style="fill: none;stroke: #e04246;stroke-miterlimit: 10;stroke-width: 5px"/>
      <path d="M868.74,269.65a218.29,218.29,0,0,1-86.5,309.63" transform="translate(-380.79 -82.23)" style="fill: none;stroke: #e04246;stroke-miterlimit: 10;stroke-width: 5px"/>
      <path d="M765.11,212.16A190.69,190.69,0,1,0,856.38,304" transform="translate(-380.79 -82.23)" style="fill: none;stroke: #e04246;stroke-miterlimit: 10;stroke-width: 5px"/>
      <path d="M841.34,427.3a163.67,163.67,0,1,1-14.88-121.92" transform="translate(-380.79 -82.23)" style="fill: none;stroke: #e04246;stroke-miterlimit: 10;stroke-width: 5px"/>
      <path d="M683.29,521.1a136.39,136.39,0,0,0,55.82-260.84" transform="translate(-380.79 -82.23)" style="fill: none;stroke: #e04246;stroke-miterlimit: 10;stroke-width: 5px"/>
      <path d="M603.55,274.06a136.61,136.61,0,0,0-49,65.58" transform="translate(-380.79 -82.23)" style="fill: none;stroke: #e04246;stroke-miterlimit: 10;stroke-width: 5px"/>
      <path d="M656.27,279.77A109.1,109.1,0,1,1,578.36,416" transform="translate(-380.79 -82.23)" style="fill: none;stroke: #e04246;stroke-miterlimit: 10;stroke-width: 5px"/>
      <path d="M646.42,311.66a82,82,0,0,0-37.66,106.92" transform="translate(-380.79 -82.23)" style="fill: none;stroke: #e04246;stroke-miterlimit: 10;stroke-width: 5px"/>
      <path d="M683.29,466.55a81.83,81.83,0,0,0,34.42-156.08" transform="translate(-380.79 -82.23)" style="fill: none;stroke: #e04246;stroke-miterlimit: 10;stroke-width: 5px"/>
      <g>
        <path d="M631.08,381a54.59,54.59,0,0,1,79.09-42.59" transform="translate(-380.79 -82.23)" style="fill: none;stroke: #e04246;stroke-miterlimit: 10;stroke-width: 5px"/>
        <path d="M733.22,413.07a54.52,54.52,0,0,1-53.9,28.13" transform="translate(-380.79 -82.23)" style="fill: none;stroke: #e04246;stroke-miterlimit: 10;stroke-width: 5px"/>
      </g>
      <path d="M683.29,357.46a27.28,27.28,0,1,0,27.27,27.27" transform="translate(-380.79 -82.23)" style="fill: none;stroke: #e04246;stroke-miterlimit: 10;stroke-width: 5px"/>
    </g>
  </g>
</svg>
