<svg xmlns="http://www.w3.org/2000/svg" xmlns:xlink="http://www.w3.org/1999/xlink" viewBox="0 0 483.63 610.61">
  <defs>
    <clipPath id="a" transform="translate(-441.47 -79.59)">
      <ellipse cx="683.29" cy="345.21" rx="243.81" ry="268.07" style="fill: none"/>
    </clipPath>
  </defs>
  <title>dobbler</title>
  <g style="clip-path: url(#a)">
    <g>
      <ellipse cx="241.81" cy="265.62" rx="239.31" ry="263.12" style="fill: none;stroke: #eee;stroke-miterlimit: 10;stroke-width: 5px"/>
      <ellipse cx="241.81" cy="279.6" rx="229.93" ry="252.8" style="fill: none;stroke: #eee;stroke-miterlimit: 10;stroke-width: 4.901960780844094px"/>
      <ellipse cx="241.81" cy="293.57" rx="220.54" ry="242.49" style="fill: none;stroke: #eee;stroke-miterlimit: 10;stroke-width: 4.803921565299437px"/>
      <ellipse cx="241.81" cy="307.55" rx="211.16" ry="232.17" style="fill: none;stroke: #eee;stroke-miterlimit: 10;stroke-width: 4.705882349754781px"/>
      <ellipse cx="241.81" cy="321.52" rx="201.77" ry="221.85" style="fill: none;stroke: #eee;stroke-miterlimit: 10;stroke-width: 4.607843134210125px"/>
      <ellipse cx="241.81" cy="335.5" rx="192.39" ry="211.53" style="fill: none;stroke: #eee;stroke-miterlimit: 10;stroke-width: 4.509803918665468px"/>
      <ellipse cx="241.81" cy="349.47" rx="183" ry="201.21" style="fill: none;stroke: #eee;stroke-miterlimit: 10;stroke-width: 4.411764703120811px"/>
      <ellipse cx="241.81" cy="363.45" rx="173.62" ry="190.89" style="fill: none;stroke: #eee;stroke-miterlimit: 10;stroke-width: 4.3137254875761535px"/>
      <ellipse cx="241.81" cy="377.42" rx="164.23" ry="180.57" style="fill: none;stroke: #eee;stroke-miterlimit: 10;stroke-width: 4.215686272031497px"/>
      <ellipse cx="241.81" cy="391.4" rx="154.85" ry="170.26" style="fill: none;stroke: #eee;stroke-miterlimit: 10;stroke-width: 4.11764705648684px"/>
      <ellipse cx="241.81" cy="405.37" rx="145.46" ry="159.94" style="fill: none;stroke: #eee;stroke-miterlimit: 10;stroke-width: 4.019607840942183px"/>
      <ellipse cx="241.81" cy="419.35" rx="136.08" ry="149.62" style="fill: none;stroke: #eee;stroke-miterlimit: 10;stroke-width: 3.9215686253975264px"/>
      <ellipse cx="241.81" cy="433.32" rx="126.7" ry="139.3" style="fill: none;stroke: #eee;stroke-miterlimit: 10;stroke-width: 3.8235294098528696px"/>
      <ellipse cx="241.81" cy="447.3" rx="117.31" ry="128.98" style="fill: none;stroke: #eee;stroke-miterlimit: 10;stroke-width: 3.7254901943082124px"/>
      <ellipse cx="241.81" cy="461.27" rx="107.93" ry="118.66" style="fill: none;stroke: #eee;stroke-miterlimit: 10;stroke-width: 3.6274509787635556px"/>
      <ellipse cx="241.81" cy="475.25" rx="98.54" ry="108.34" style="fill: none;stroke: #eee;stroke-miterlimit: 10;stroke-width: 3.529411763218899px"/>
      <ellipse cx="241.81" cy="489.22" rx="89.16" ry="98.03" style="fill: none;stroke: #eee;stroke-miterlimit: 10;stroke-width: 3.4313725476742416px"/>
      <ellipse cx="241.81" cy="503.2" rx="79.77" ry="87.71" style="fill: none;stroke: #eee;stroke-miterlimit: 10;stroke-width: 3.333333332129585px"/>
      <ellipse cx="241.81" cy="517.17" rx="70.39" ry="77.39" style="fill: none;stroke: #eee;stroke-miterlimit: 10;stroke-width: 3.235294116584928px"/>
      <ellipse cx="241.81" cy="531.15" rx="61" ry="67.07" style="fill: none;stroke: #eee;stroke-miterlimit: 10;stroke-width: 3.1372549010402713px"/>
      <ellipse cx="241.81" cy="545.12" rx="51.62" ry="56.75" style="fill: none;stroke: #eee;stroke-miterlimit: 10;stroke-width: 3.0392156854956145px"/>
      <ellipse cx="241.81" cy="559.1" rx="42.23" ry="46.43" style="fill: none;stroke: #eee;stroke-miterlimit: 10;stroke-width: 2.9411764699509573px"/>
      <ellipse cx="241.81" cy="573.07" rx="32.85" ry="36.11" style="fill: none;stroke: #eee;stroke-miterlimit: 10;stroke-width: 2.8431372544063005px"/>
    </g>
  </g>
</svg>
