<svg xmlns="http://www.w3.org/2000/svg" viewBox="0 0 307.03 595.48">
  <title>ovals</title>
  <g>
    <ellipse cx="663.7" cy="199.54" rx="92.73" ry="158.17" transform="translate(-276.18 650.3) rotate(-68.42)" style="fill: none;stroke: #eee;stroke-miterlimit: 10;stroke-width: 5px"/>
    <ellipse cx="663.7" cy="211.94" rx="92.73" ry="158.17" transform="translate(-287.71 658.14) rotate(-68.42)" style="fill: none;stroke: #eee;stroke-miterlimit: 10;stroke-width: 4.870967745780944px"/>
    <ellipse cx="663.7" cy="224.34" rx="92.73" ry="158.17" transform="translate(-299.24 665.98) rotate(-68.42)" style="fill: none;stroke: #eee;stroke-miterlimit: 10;stroke-width: 4.741935487451224px"/>
    <ellipse cx="663.7" cy="236.74" rx="92.73" ry="158.17" transform="translate(-310.77 673.81) rotate(-68.42)" style="fill: none;stroke: #eee;stroke-miterlimit: 10;stroke-width: 4.612903229121504px"/>
    <ellipse cx="663.7" cy="249.14" rx="92.73" ry="158.17" transform="translate(-322.3 681.65) rotate(-68.42)" style="fill: none;stroke: #eee;stroke-miterlimit: 10;stroke-width: 4.483870970791783px"/>
    <ellipse cx="663.7" cy="261.54" rx="92.73" ry="158.17" transform="translate(-333.83 689.49) rotate(-68.42)" style="fill: none;stroke: #eee;stroke-miterlimit: 10;stroke-width: 4.3548387124620636px"/>
    <ellipse cx="663.7" cy="273.94" rx="92.73" ry="158.17" transform="translate(-345.36 697.33) rotate(-68.42)" style="fill: none;stroke: #eee;stroke-miterlimit: 10;stroke-width: 4.225806454132343px"/>
    <ellipse cx="663.7" cy="286.34" rx="92.73" ry="158.17" transform="translate(-356.89 705.17) rotate(-68.42)" style="fill: none;stroke: #eee;stroke-miterlimit: 10;stroke-width: 4.096774195802622px"/>
    <ellipse cx="663.7" cy="298.74" rx="92.73" ry="158.17" transform="translate(-368.43 713.01) rotate(-68.42)" style="fill: none;stroke: #eee;stroke-miterlimit: 10;stroke-width: 3.967741937472902px"/>
    <ellipse cx="663.7" cy="311.14" rx="92.73" ry="158.17" transform="translate(-379.96 720.85) rotate(-68.42)" style="fill: none;stroke: #eee;stroke-miterlimit: 10;stroke-width: 3.838709679143182px"/>
    <ellipse cx="663.7" cy="323.54" rx="92.73" ry="158.17" transform="translate(-391.49 728.69) rotate(-68.42)" style="fill: none;stroke: #eee;stroke-miterlimit: 10;stroke-width: 3.7096774208134615px"/>
    <ellipse cx="663.7" cy="335.94" rx="92.73" ry="158.17" transform="translate(-403.02 736.52) rotate(-68.42)" style="fill: none;stroke: #eee;stroke-miterlimit: 10;stroke-width: 3.580645162483741px"/>
    <ellipse cx="663.7" cy="348.34" rx="92.73" ry="158.17" transform="translate(-414.55 744.36) rotate(-68.42)" style="fill: none;stroke: #eee;stroke-miterlimit: 10;stroke-width: 3.451612904154021px"/>
    <ellipse cx="663.7" cy="360.74" rx="92.73" ry="158.17" transform="translate(-426.08 752.2) rotate(-68.42)" style="fill: none;stroke: #eee;stroke-miterlimit: 10;stroke-width: 3.3225806458243006px"/>
    <ellipse cx="663.7" cy="373.14" rx="92.73" ry="158.17" transform="translate(-437.61 760.04) rotate(-68.42)" style="fill: none;stroke: #eee;stroke-miterlimit: 10;stroke-width: 3.1935483874945803px"/>
    <ellipse cx="663.7" cy="385.54" rx="92.73" ry="158.17" transform="translate(-449.14 767.88) rotate(-68.42)" style="fill: none;stroke: #eee;stroke-miterlimit: 10;stroke-width: 3.06451612916486px"/>
    <ellipse cx="663.7" cy="397.94" rx="92.73" ry="158.17" transform="translate(-460.67 775.72) rotate(-68.42)" style="fill: none;stroke: #eee;stroke-miterlimit: 10;stroke-width: 2.9354838708351396px"/>
    <ellipse cx="663.7" cy="410.34" rx="92.73" ry="158.17" transform="translate(-472.2 783.56) rotate(-68.42)" style="fill: none;stroke: #eee;stroke-miterlimit: 10;stroke-width: 2.8064516125054193px"/>
    <ellipse cx="663.7" cy="422.74" rx="92.73" ry="158.17" transform="translate(-483.73 791.4) rotate(-68.42)" style="fill: none;stroke: #eee;stroke-miterlimit: 10;stroke-width: 2.677419354175699px"/>
    <ellipse cx="663.7" cy="435.14" rx="92.73" ry="158.17" transform="translate(-495.27 799.24) rotate(-68.42)" style="fill: none;stroke: #eee;stroke-miterlimit: 10;stroke-width: 2.5483870958459787px"/>
    <ellipse cx="663.7" cy="447.55" rx="92.73" ry="158.17" transform="translate(-506.8 807.07) rotate(-68.42)" style="fill: none;stroke: #eee;stroke-miterlimit: 10;stroke-width: 2.4193548375162583px"/>
    <ellipse cx="663.7" cy="459.95" rx="92.73" ry="158.17" transform="translate(-518.33 814.91) rotate(-68.42)" style="fill: none;stroke: #eee;stroke-miterlimit: 10;stroke-width: 2.290322579186538px"/>
    <ellipse cx="663.7" cy="472.35" rx="92.73" ry="158.17" transform="translate(-529.86 822.75) rotate(-68.42)" style="fill: none;stroke: #eee;stroke-miterlimit: 10;stroke-width: 2.1612903208568177px"/>
    <ellipse cx="663.7" cy="484.75" rx="92.73" ry="158.17" transform="translate(-541.39 830.59) rotate(-68.42)" style="fill: none;stroke: #eee;stroke-miterlimit: 10;stroke-width: 2.0322580625270974px"/>
    <ellipse cx="663.7" cy="497.15" rx="92.73" ry="158.17" transform="translate(-552.92 838.43) rotate(-68.42)" style="fill: none;stroke: #eee;stroke-miterlimit: 10;stroke-width: 1.903225804197377px"/>
    <ellipse cx="663.7" cy="509.55" rx="92.73" ry="158.17" transform="translate(-564.45 846.27) rotate(-68.42)" style="fill: none;stroke: #eee;stroke-miterlimit: 10;stroke-width: 1.7741935458676568px"/>
    <ellipse cx="663.7" cy="521.95" rx="92.73" ry="158.17" transform="translate(-575.98 854.11) rotate(-68.42)" style="fill: none;stroke: #eee;stroke-miterlimit: 10;stroke-width: 1.6451612875379364px"/>
    <ellipse cx="663.7" cy="534.35" rx="92.73" ry="158.17" transform="translate(-587.51 861.95) rotate(-68.42)" style="fill: none;stroke: #eee;stroke-miterlimit: 10;stroke-width: 1.5161290292082161px"/>
    <ellipse cx="663.7" cy="546.75" rx="92.73" ry="158.17" transform="translate(-599.04 869.79) rotate(-68.42)" style="fill: none;stroke: #eee;stroke-miterlimit: 10;stroke-width: 1.3870967708784958px"/>
    <ellipse cx="663.7" cy="559.15" rx="92.73" ry="158.17" transform="translate(-610.57 877.62) rotate(-68.42)" style="fill: none;stroke: #eee;stroke-miterlimit: 10;stroke-width: 1.2580645125487755px"/>
    <ellipse cx="663.7" cy="571.55" rx="92.73" ry="158.17" transform="translate(-622.11 885.46) rotate(-68.42)" style="fill: none;stroke: #eee;stroke-miterlimit: 10;stroke-width: 1.1290322542190552px"/>
    <ellipse cx="663.7" cy="583.95" rx="92.73" ry="158.17" transform="translate(-633.64 893.3) rotate(-68.42)" style="fill: none;stroke: #eee;stroke-miterlimit: 10"/>
  </g>
</svg>
