<svg xmlns="http://www.w3.org/2000/svg" viewBox="0 0 247.09 573.99">
  <title>soundwave</title>
  <g>
    <path d="M700.7,135.71s-7.31,28-1.22,37.77,46.79,18.1,47.52,34.11c1.21,26.8-160.6,9-159.59,35.33,1.21,31.67,193.7,1.21,192.48,35.32S630,278.24,630,313.57s118.17-1.22,118.17,39c0,32.89-188.82-8.53-187.61,35.33s246.09,1.21,246.09,35.32-157.15,7.31-157.15,31.68,95.46,20.69,96.24,40.2C747,525.55,569.13,502.4,569.13,528c0,41.42,205.34,2.46,207.1,34.11,2.44,43.86-162.56,12.25-160.8,37.77,2.43,35.33,132.78,20.71,132.78,36.55S699.48,662,699.48,674.17V709.5" transform="translate(-560.1 -135.58)" style="fill: none;stroke: #eee;stroke-miterlimit: 10"/>
    <path d="M700.7,135.71c0,.14-6.9,27-1.06,36.4S744.3,189.8,745,205.27c1.31,26.15-152.66,9.88-151.56,35.57,1.31,30.9,184.76,2.67,183.7,36-1.09,33.09-142.58,1.23-142.56,35.53s112.56-.13,112.54,38.7c0,32.06-179.94-6.62-178.89,36s234,3,233.76,36.57c-.17,33.13-150,8.28-150.09,32.16-.07,23.64,90.78,20.57,91.48,39.6C744.49,525.09,575,503.8,575,528.91c0,40.37,195.51,4.16,197.2,35.14,2.33,42.54-154.78,13.15-153.06,38.1,2.36,34.32,126.55,21,126.6,36.55,0,15.39-46.35,24.93-46.32,36.73s.05,34.07.05,34.07" transform="translate(-560.1 -135.58)" style="fill: none;stroke: #eee;stroke-miterlimit: 10"/>
    <path d="M700.7,135.71c.07.29-6.46,25.91-.91,35S742.33,188,743.09,203c1.39,25.5-144.72,10.71-143.54,35.8,1.41,30.14,175.83,4.12,174.92,36.6-1,32.07-135.32,2.46-135.27,35.73,0,33,106.94,1,106.9,38.41-.06,31.23-171-4.71-170.17,36.61.83,41.51,221.89,4.87,221.44,37.81-.43,32.16-142.8,9.25-143,32.64-.15,22.92,86.1,20.47,86.71,39,.93,29.07-160.11,9.65-160.18,34.27-.09,39.33,185.69,5.87,187.31,36.18,2.23,41.22-147,14-145.32,38.42,2.29,33.33,120.33,21.29,120.42,36.56.06,15-44,24.29-43.92,35.7.07,11.57.11,32.81.11,32.81" transform="translate(-560.1 -135.58)" style="fill: none;stroke: #eee;stroke-miterlimit: 10"/>
    <path d="M700.7,135.71c.1.43-6,24.86-.75,33.67,5.4,9,40.37,16.87,41.19,31.26,1.41,24.85-136.79,11.54-135.52,36,1.5,29.37,166.89,5.57,166.14,37.24-.82,31.05-128.06,3.68-128,35.93.05,31.8,101.34,2,101.27,38.12-.08,30.4-162.14-2.79-161.45,37.25.64,40.33,209.8,6.7,209.12,39-.65,31.19-135.68,10.22-136,33.13-.26,22.19,81.43,20.36,82,38.4.78,28.38-151.84,10.81-152,34.95C586.63,569,762.61,538.33,764.16,568c2.13,39.9-139.2,15-137.57,38.75,2.21,32.33,114.1,21.57,114.24,36.56.1,14.51-41.58,23.64-41.51,34.67.1,11.26.16,31.55.16,31.55" transform="translate(-560.1 -135.58)" style="fill: none;stroke: #eee;stroke-miterlimit: 10"/>
    <path d="M700.7,135.71c.13.58-5.62,23.81-.6,32.3,5.18,8.76,38.24,16.46,39.08,30.32,1.48,24.2-128.84,12.36-127.49,36.27,1.6,28.6,158,7,157.37,37.88-.7,30-120.8,4.91-120.71,36.13.07,30.62,95.73,3.12,95.64,37.83-.12,29.56-153.26-.88-152.74,37.89.45,39.16,197.71,8.52,196.81,40.29-.86,30.21-128.53,11.19-128.9,33.62-.36,21.47,76.75,20.24,77.18,37.79.64,27.69-143.57,12-143.71,35.65-.17,37.23,166,9.28,167.51,38.24,2,38.59-131.42,15.87-129.83,39.09,2.14,31.32,107.87,21.86,108.06,36.56.13,14.07-39.2,23-39.11,33.64.14,11,.22,30.29.22,30.29" transform="translate(-560.1 -135.58)" style="fill: none;stroke: #eee;stroke-miterlimit: 10"/>
    <path d="M700.7,135.71c.16.72-5.2,22.76-.44,30.94,4.94,8.51,36.09,16,37,29.37,1.54,23.54-120.91,13.19-119.47,36.5,1.69,27.83,149.1,8.47,148.59,38.52-.49,29-113.54,6.14-113.43,36.33.09,29.44,90.12,4.2,90,37.55-.15,28.72-144.36,1-144,38.52.26,38,185.62,10.35,184.49,41.53-1.07,29.24-121.37,12.17-121.84,34.11-.44,20.74,72.08,20.13,72.42,37.19.49,27-135.31,13.15-135.48,36.33-.21,36.19,156.2,11,157.62,39.28C758,609.15,632.48,588.66,634,611.3c2.07,30.32,101.68,22.14,101.88,36.56.19,13.63-36.82,22.35-36.7,32.61.16,10.65.27,29,.27,29" transform="translate(-560.1 -135.58)" style="fill: none;stroke: #eee;stroke-miterlimit: 10"/>
    <path d="M700.7,135.71c.19.86-4.78,21.71-.29,29.57,4.72,8.27,34,15.63,34.87,28.42,1.61,22.9-113,14-111.44,36.74,1.78,27.07,140.17,9.93,139.8,39.16-.35,28-106.28,7.36-106.14,36.53.1,28.26,84.51,5.29,84.38,37.26-.18,27.89-135.47,2.93-135.31,39.16.07,36.81,173.54,12.17,172.17,42.78-1.27,28.25-114.21,13.13-114.77,34.59-.52,20,67.4,20,67.65,36.58.35,26.31-127,14.32-127.24,37-.26,35.14,146.37,12.69,147.71,40.31,1.82,35.95-115.84,17.68-114.34,39.75,2,29.32,95.45,22.42,95.7,36.56.22,13.19-34.46,21.71-34.3,31.58.18,10.34.33,27.77.33,27.77" transform="translate(-560.1 -135.58)" style="fill: none;stroke: #eee;stroke-miterlimit: 10"/>
    <path d="M700.7,135.71c.22,1-4.36,20.66-.14,28.2,4.49,8,31.84,15.23,32.76,27.48,1.68,22.25-105,14.85-103.41,37,1.87,26.3,131.24,11.38,131,39.8-.2,27-99,8.59-98.86,36.73.12,27.08,78.9,6.37,78.75,37-.21,27.06-126.57,4.85-126.59,39.8-.12,35.64,161.46,14,159.85,44-1.46,27.28-107,14.1-107.7,35.08-.61,19.28,62.71,19.91,62.88,36,.21,25.61-118.77,15.48-119,37.71-.3,34.1,136.54,14.4,137.82,41.35,1.72,34.63-108.06,18.59-106.6,40.07,1.92,28.33,89.23,22.72,89.52,36.57.26,12.75-32.09,21.06-31.89,30.56.2,10,.38,26.5.38,26.5" transform="translate(-560.1 -135.58)" style="fill: none;stroke: #eee;stroke-miterlimit: 10"/>
    <path d="M700.7,135.71c.25,1.15-3.94,19.61,0,26.84,4.26,7.78,29.7,14.81,30.65,26.52,1.75,21.6-97.09,15.68-95.39,37.21,2,25.53,122.32,12.83,122.25,40.44-.07,25.93-91.76,9.82-91.58,36.93.14,25.9,73.29,7.45,73.11,36.68-.23,26.23-117.68,6.76-117.87,40.44-.31,34.47,149.38,15.82,147.53,45.26-1.65,26.3-99.88,15.07-100.64,35.56-.69,18.57,58,19.8,58.12,35.39.06,24.92-110.5,16.65-110.78,38.4-.34,33,126.72,16.1,127.92,42.38,1.62,33.31-100.26,19.49-98.85,40.4,1.85,27.32,83,23,83.33,36.57.3,12.31-29.7,20.42-29.48,29.53.24,9.72.44,25.24.44,25.24" transform="translate(-560.1 -135.58)" style="fill: none;stroke: #eee;stroke-miterlimit: 10"/>
    <path d="M700.7,135.71c.29,1.29-3.52,18.56.17,25.47,4,7.54,27.57,14.4,28.55,25.58,1.82,21-89.16,16.51-87.37,37.44,2.06,24.77,113.4,14.28,113.47,41.08.07,24.91-84.5,11.05-84.3,37.13.16,24.73,67.68,8.54,67.49,36.39-.27,25.4-108.79,8.67-109.16,41.08-.5,33.29,137.31,17.64,135.21,46.5-1.84,25.32-92.71,16-93.57,36.05-.77,17.84,53.36,19.69,53.35,34.78C724.46,521.44,622.31,515,622,536.3c-.39,32,116.88,17.81,118,43.41,1.52,32-92.48,20.4-91.11,40.74,1.77,26.32,76.78,23.29,77.15,36.57.34,11.87-27.32,19.77-27.07,28.5.26,9.41.49,24,.49,24" transform="translate(-560.1 -135.58)" style="fill: none;stroke: #eee;stroke-miterlimit: 10"/>
    <path d="M700.7,135.71c.32,1.44-3.1,17.51.33,24.1,3.79,7.3,25.44,14,26.43,24.64,1.9,20.29-81.21,17.33-79.34,37.67,2.16,24,104.47,15.73,104.69,41.72.21,23.89-77.24,12.27-77,37.33.17,23.55,62.07,9.62,61.85,36.1-.29,24.57-99.89,10.59-100.44,41.72-.69,32.12,125.25,19.47,122.9,47.75-2,24.34-85.55,17-86.52,36.53-.84,17.11,48.69,19.58,48.6,34.18-.24,23.54-94,19-94.32,39.77-.43,31,107.06,19.52,108.13,44.45,1.41,30.69-84.7,21.31-83.37,41.07,1.7,25.32,70.56,23.57,71,36.57.37,11.43-24.94,19.13-24.67,27.47.3,9.11.55,22.72.55,22.72" transform="translate(-560.1 -135.58)" style="fill: none;stroke: #eee;stroke-miterlimit: 10"/>
    <path d="M700.7,135.71c.35,1.58-2.69,16.46.48,22.74,3.56,7.06,23.31,13.57,24.33,23.68,2,19.65-73.28,18.17-71.31,37.91,2.25,23.23,95.53,17.18,95.9,42.36.34,22.86-70,13.5-69.72,37.53.19,22.37,56.51,10.71,56.22,35.82-.28,23.73-90.94,12.49-91.73,42.35-.82,30.95,113.18,21.29,110.58,49-2.2,23.36-78.38,18-79.45,37-.92,16.39,44,19.46,43.83,33.57-.38,22.85-85.71,20.16-86.08,40.47-.48,29.91,97.23,21.22,98.22,45.48,1.31,29.37-76.9,22.21-75.62,41.4,1.63,24.31,64.33,23.85,64.79,36.57.4,11-22.56,18.48-22.26,26.44.32,8.8.6,21.46.6,21.46" transform="translate(-560.1 -135.58)" style="fill: none;stroke: #eee;stroke-miterlimit: 10"/>
    <path d="M700.7,135.71c.38,1.73-2.27,15.42.64,21.37,3.32,6.82,21.18,13.17,22.22,22.74,2.05,19-65.34,19-63.29,38.14,2.34,22.47,86.6,18.63,87.13,43,.47,21.84-62.72,14.73-62.45,37.73.21,21.19,50.9,11.79,50.59,35.53-.3,22.9-82,14.4-83,43-1,29.78,101.13,23.11,98.26,50.23-2.37,22.39-71.21,18.95-72.39,37.51-1,15.66,39.34,19.35,39.07,33-.52,22.15-77.44,21.32-77.85,41.15C639.1,567.93,727,562,728,585.59c1.21,28-69.12,23.12-67.88,41.72,1.56,23.32,58.1,24.15,58.61,36.58.43,10.55-20.18,17.84-19.86,25.41.36,8.49.66,20.2.66,20.2" transform="translate(-560.1 -135.58)" style="fill: none;stroke: #eee;stroke-miterlimit: 10"/>
    <path d="M700.7,135.71c.41,1.87-1.86,14.37.79,20,3.09,6.57,19.06,12.75,20.11,21.78,2.14,18.35-57.4,19.83-55.26,38.38,2.44,21.7,77.67,20.09,78.35,43.64.6,20.81-55.46,16-55.16,37.93.22,20,45.29,12.87,45,35.24-.33,22.07-73.15,16.32-74.29,43.63-1.2,28.61,89.08,24.94,85.94,51.47-2.53,21.41-64,19.92-65.32,38-1.06,14.94,34.65,19.25,34.3,32.38-.67,21.46-69.17,22.48-69.62,41.84-.56,27.81,77.58,24.63,78.44,47.55,1.1,26.73-61.34,24-60.14,42.05,1.48,22.32,51.87,24.43,52.43,36.58.46,10.11-17.8,17.19-17.45,24.38.39,8.19.71,18.94.71,18.94" transform="translate(-560.1 -135.58)" style="fill: none;stroke: #eee;stroke-miterlimit: 10"/>
    <path d="M700.7,135.71c.44,2-1.45,13.33.94,18.64,2.86,6.34,16.94,12.34,18,20.84,2.22,17.7-49.46,20.65-47.24,38.61,2.53,20.93,68.73,21.54,69.57,44.28.73,19.79-48.19,17.18-47.88,38.13.24,18.83,39.68,14,39.33,35-.36,21.24-64.26,18.23-65.58,44.27-1.39,27.43,77,26.76,73.62,52.71-2.69,20.43-56.86,20.89-58.25,38.48-1.13,14.21,30,19.14,29.53,31.77-.77,20.77-60.9,23.66-61.38,42.53-.6,26.77,67.74,26.34,68.53,48.58,1,25.42-53.54,24.93-52.39,42.39,1.41,21.31,45.64,24.72,46.25,36.58.49,9.66-15.42,16.55-15,23.35.43,7.88.77,17.68.77,17.68" transform="translate(-560.1 -135.58)" style="fill: none;stroke: #eee;stroke-miterlimit: 10"/>
    <path d="M700.7,135.71c.47,2.16-1,12.28,1.1,17.27,2.61,6.11,14.81,11.93,15.9,19.9,2.31,17-41.53,21.47-39.22,38.84,2.63,20.16,59.79,23,60.79,44.92.86,18.77-40.93,18.41-40.59,38.33.26,17.66,34.07,15,33.69,34.66C732,350,677,349.77,675.51,374.54c-1.58,26.26,65,28.59,61.3,54-2.84,19.45-49.68,21.85-51.19,39-1.19,13.49,25.3,19,24.77,31.17-1,20.08-52.63,24.82-53.15,43.21-.64,25.73,57.92,28,58.64,49.62.9,24.1-45.76,25.84-44.65,42.72,1.34,20.31,39.41,25,40.07,36.58.52,9.22-13,15.91-12.65,22.32.47,7.57.83,16.42.83,16.42" transform="translate(-560.1 -135.58)" style="fill: none;stroke: #eee;stroke-miterlimit: 10"/>
    <path d="M700.7,135.71c.51,2.3-.63,11.24,1.25,15.91,2.37,5.86,12.7,11.51,13.79,18.94,2.41,16.4-33.58,22.31-31.19,39.08,2.72,19.4,50.85,24.44,52,45.56,1,17.74-33.68,19.63-33.32,38.53.28,16.48,28.46,16.13,28.06,34.38-.42,19.56-46.47,22.05-48.14,45.54-1.78,25.09,53,30.41,49,55.2-3,18.48-42.5,22.82-44.13,39.45-1.26,12.76,20.62,18.91,20,30.56-1.1,19.39-44.36,26-44.91,43.91-.69,24.67,48.08,29.75,48.74,50.65.8,22.78-38,26.74-36.91,43.05,1.26,19.31,33.18,25.29,33.89,36.58.55,8.78-10.65,15.26-10.24,21.29.5,7.27.88,15.16.88,15.16" transform="translate(-560.1 -135.58)" style="fill: none;stroke: #eee;stroke-miterlimit: 10"/>
    <path d="M700.7,135.71c.54,2.44-.23,10.2,1.41,14.54,2.12,5.63,10.58,11.11,11.68,18,2.51,15.74-25.65,23.13-23.16,39.32,2.81,18.62,41.9,25.88,43.23,46.19,1.1,16.72-26.42,20.86-26,38.73.29,15.3,22.84,17.21,22.43,34.09-.46,18.73-37.59,24-39.43,46.18-2,23.92,41,32.24,36.67,56.44-3.12,17.51-35.31,23.8-37.07,39.94-1.31,12,16,18.8,15.24,30-1.25,18.69-36.1,27.16-36.68,44.59-.73,23.63,38.26,31.46,38.84,51.69.7,21.46-30.18,27.65-29.16,43.37,1.19,18.31,27,25.58,27.71,36.59.57,8.34-8.27,14.62-7.84,20.26.54,7,.94,13.9.94,13.9" transform="translate(-560.1 -135.58)" style="fill: none;stroke: #eee;stroke-miterlimit: 10"/>
    <path d="M700.7,135.71c.57,2.59.17,9.16,1.56,13.17,1.87,5.41,8.47,10.7,9.58,17.05,2.62,15.09-17.71,24-15.14,39.56,2.9,17.85,32.94,27.33,34.45,46.83,1.21,15.7-19.15,22.09-18.75,38.93.32,14.12,17.23,18.29,16.8,33.8-.49,17.9-28.7,25.87-30.71,46.82-2.17,22.74,29,34.08,24.35,57.68-3.25,16.54-28.11,24.77-30,40.43-1.37,11.31,11.27,18.68,10.47,29.35-1.39,18-27.83,28.33-28.45,45.29-.77,22.58,28.43,33.16,28.95,52.72.59,20.14-22.4,28.55-21.42,43.7,1.12,17.31,20.71,25.86,21.52,36.59.6,7.9-5.87,14-5.42,19.23.57,6.65,1,12.64,1,12.64" transform="translate(-560.1 -135.58)" style="fill: none;stroke: #eee;stroke-miterlimit: 10"/>
    <path d="M700.7,135.71c.6,2.73.56,8.12,1.71,11.81,1.62,5.17,6.37,10.28,7.47,16.1,2.74,14.43-9.77,24.79-7.11,39.79,3,17.09,24,28.79,25.67,47.47,1.33,14.68-11.89,23.31-11.46,39.13.33,12.94,11.58,19.38,11.17,33.51-.56,17.07-19.86,27.78-22,47.46-2.41,21.56,17,35.92,12,58.92-3.37,15.57-20.91,25.75-22.93,40.91-1.42,10.59,6.58,18.58,5.7,28.76-1.53,17.31-19.56,29.49-20.21,46-.82,21.54,18.6,34.87,19,53.75s-14.61,29.47-13.68,44c1,16.31,14.47,26.15,15.34,36.59.63,7.46-3.49,13.32-3,18.2.62,6.34,1.05,11.38,1.05,11.38" transform="translate(-560.1 -135.58)" style="fill: none;stroke: #eee;stroke-miterlimit: 10"/>
    <path d="M700.7,135.71c.63,2.88.95,7.08,1.87,10.44,1.34,4.94,4.25,9.86,5.36,15.16,2.87,13.77-1.83,25.62.91,40,3.09,16.32,15,30.24,16.9,48.11,1.43,13.65-4.64,24.54-4.18,39.33.34,11.76,6,20.46,5.53,33.22-.59,16.24-11,29.69-13.28,48.1-2.6,20.39,5.05,37.76-.29,60.17-3.48,14.6-13.7,26.71-15.87,41.39-1.46,9.87,1.91,18.47.94,28.16-1.68,16.62-11.29,30.66-12,46.65-.86,20.49,8.77,36.58,9.15,54.79.39,17.51-6.82,30.37-5.93,44.37,1,15.31,8.21,26.44,9.16,36.59.64,7-1.09,12.68-.61,17.17.66,6,1.1,10.12,1.1,10.12" transform="translate(-560.1 -135.58)" style="fill: none;stroke: #eee;stroke-miterlimit: 10"/>
    <path d="M700.7,135.71c17.07,77.94,43.64,159.57,8.16,294.9-32.3,123.24-9.38,278.89-9.38,278.89" transform="translate(-560.1 -135.58)" style="fill: none;stroke: #eee;stroke-miterlimit: 10"/>
  </g>
</svg>
