<?xml version="1.0" encoding="utf-8"?>
<!-- Generator: Adobe Illustrator 24.0.3, SVG Export Plug-In . SVG Version: 6.00 Build 0)  -->
<svg version="1.1" id="Capa_1" xmlns="http://www.w3.org/2000/svg" xmlns:xlink="http://www.w3.org/1999/xlink" x="0px" y="0px"
	 viewBox="0 0 512 512" style="enable-background:new 0 0 512 512;" xml:space="preserve">
<g>
	<path d="M256,316c41.4,0,75-33.6,75-75V121c0-41.4-33.6-75-75-75s-75,33.6-75,75v120C181,282.4,214.6,316,256,316z"/>
	<path d="M376,166c-8.3,0-15,6.7-15,15v60c0,57.9-47.1,105-105,105s-105-47.1-105-105v-60c0-8.3-6.7-15-15-15s-15,6.7-15,15v60
		c0,69.4,52.6,126.7,120,134.2V436h-45c-8.3,0-15,6.7-15,15s6.7,15,15,15h120c8.3,0,15-6.7,15-15s-6.7-15-15-15h-45v-60.8
		c67.4-7.5,120-64.8,120-134.2v-60C391,172.7,384.3,166,376,166L376,166z"/>
</g>
</svg>
